<svg xmlns="http://www.w3.org/2000/svg" version="1.1" xmlns:xlink="http://www.w3.org/1999/xlink" width="512" height="512" x="0" y="0" viewBox="0 0 512 511" style="enable-background:new 0 0 512 512" xml:space="preserve" class=""><g><path fill="#b3adb6" d="M488.348 419.336H23.628c-10.503 0-18.179-9.926-15.526-20.098l22.418-85.96 30.742-117.903a25.37 25.37 0 0 1 17.222-17.898l74.973-22.641a25.376 25.376 0 0 0 15.8-13.883l22.7-50.414 15.52-34.453a17.313 17.313 0 0 1 6.707-7.629l61.503-37.824c8.305-5.106 19.192-2.34 24.055 6.101l62.23 108.11 28.571 49.648a23.59 23.59 0 0 0 2.703 3.774c2 2.289 4.442 4.175 7.195 5.546l58.024 28.887a23.52 23.52 0 0 1 12.61 16.617l28.171 146.528 4.246 22.113c3.672 10.441-4.074 21.379-15.144 21.379zm0 0" opacity="1" data-original="#b3adb6" class=""></path><path fill="#e2fbe4" d="m300.094 17.34-50.598 31.117a17.345 17.345 0 0 0-6.71 7.629L227.27 90.539l-22.7 50.414a25.376 25.376 0 0 1-15.8 13.883l-74.973 22.64a25.37 25.37 0 0 0-17.223 17.899L65.832 313.277l-22.418 85.961c-2.652 10.172 5.023 20.098 15.527 20.098H23.63c-10.504 0-18.18-9.926-15.527-20.098l22.418-85.96 30.742-117.903a25.37 25.37 0 0 1 17.222-17.898l74.973-22.641a25.376 25.376 0 0 0 15.8-13.883l22.7-50.414 15.52-34.453a17.313 17.313 0 0 1 6.707-7.629l61.504-37.824c8.304-5.106 19.19-2.34 24.054 6.101zm0 0" opacity="1" data-original="#a49ca7" class=""></path><path fill="#839185" d="M326.617 419.336H23.63c-10.504 0-18.18-9.926-15.527-20.098l22.418-85.96 113.656-25.837a85.527 85.527 0 0 1 64.035 10.715l75.57 46.864a85.55 85.55 0 0 1 38.469 54.378zM499.246 375.844l-2.371-.528-54.605 3.743c-18.09 1.242-35.36-9.625-45.461-28.602l-15.094-28.34c-7.363-13.844-10.219-30.722-7.988-47.156l19.007-93.578.512-3.117c2 2.289 4.442 4.175 7.195 5.547l58.024 28.886a23.52 23.52 0 0 1 12.61 16.617zM361.973 124.844c-2.07 3.086-3.32 4.933-3.32 4.933l-41.579 18.625a46.796 46.796 0 0 1-45.312-3.937l-79.793-53.926h-.012l15.52-34.453a17.313 17.313 0 0 1 6.707-7.629l61.503-37.824c8.305-5.106 19.192-2.34 24.055 6.101zm0 0" opacity="1" data-original="#8e8391" class=""></path><g fill="#766d78"><path d="M43.414 399.238c-2.652 10.172 5.023 20.098 15.527 20.098H23.63c-10.504 0-18.18-9.926-15.527-20.098l22.418-85.96 37.543-8.536-2.231 8.535zM300.094 17.34l-50.598 31.117a17.345 17.345 0 0 0-6.71 7.629L227.27 90.539l-8.235 18.293-27.066-18.293h-.012l15.52-34.453a17.313 17.313 0 0 1 6.707-7.629l61.504-37.824c8.304-5.106 19.19-2.34 24.054 6.101zm0 0" fill="#766d78" opacity="1" data-original="#766d78" class=""></path><path d="M43.414 399.238c-2.652 10.172 5.023 20.098 15.527 20.098H23.63c-10.504 0-18.18-9.926-15.527-20.098l22.418-85.96 37.543-8.536-2.231 8.535zM300.094 17.34l-50.598 31.117a17.345 17.345 0 0 0-6.71 7.629L227.27 90.539l-8.235 18.293-27.066-18.293h-.012l15.52-34.453a17.313 17.313 0 0 1 6.707-7.629l61.504-37.824c8.304-5.106 19.19-2.34 24.054 6.101zm0 0" fill="#766d78" opacity="1" data-original="#766d78" class=""></path></g><path d="M501.57 347.887a7.568 7.568 0 0 0-8.86-6.004 7.568 7.568 0 0 0-6 8.86l3.356 17.456c-52.414 3.598-48.949 3.395-50.59 3.395-14.304 0-27.757-9.23-35.988-24.688l-15.09-28.347c-6.914-12.985-9.074-28.235-7.207-42.336l17.25-84.953 56.645 28.203a16.057 16.057 0 0 1 8.555 11.27l17.355 90.277a7.566 7.566 0 0 0 14.86-2.86l-17.352-90.273c-1.82-9.457-8.05-17.668-16.672-21.961-63.223-31.48-61.527-29.633-64.734-35.211L306.297 12.96c-6.883-11.957-22.477-16.207-34.57-8.774l-34.125 20.989a7.562 7.562 0 0 0-2.48 10.406 7.564 7.564 0 0 0 10.405 2.484l34.13-20.988c4.734-2.91 10.827-1.246 13.523 3.434l59.625 103.593-38.82 17.387a39.182 39.182 0 0 1-37.989-3.3l-74.52-50.36c15.426-34.258 12.993-30.664 18.27-33.91 3.559-2.192 4.672-6.852 2.48-10.41-2.187-3.559-6.847-4.668-10.41-2.48-2.343 1.44-7.875 4.468-11.242 11.952l-38.219 84.871a17.807 17.807 0 0 1-11.093 9.739l-74.969 22.64c-10.914 3.297-19.48 12.2-22.356 23.23L.781 397.325c-3.922 15.012 7.446 29.578 22.852 29.578h72.742a7.565 7.565 0 0 0 7.566-7.566 7.565 7.565 0 0 0-7.566-7.566H23.633c-5.508 0-9.637-5.188-8.211-10.622l21.254-81.507 109.18-24.817a77.936 77.936 0 0 1 58.37 9.766l75.563 46.863c17.805 11.04 30.586 29.11 35.07 49.57l2.356 10.747H126.64a7.565 7.565 0 0 0-7.567 7.566 7.565 7.565 0 0 0 7.567 7.566h361.71c13.032 0 23.63-10.582 23.63-23.593 0-2.836.925 3.543-10.41-55.422zm-13.218 63.883H332.707c-3.133-14.301-7.848-50.176-44.941-73.18l-75.563-46.86a93.072 93.072 0 0 0-69.703-11.664L40.977 303.145 68.582 197.28c1.555-5.965 6.188-10.777 12.086-12.558l74.973-22.641a32.936 32.936 0 0 0 20.515-18.016l19.016-42.23 72.351 48.894a54.287 54.287 0 0 0 52.645 4.57l40.227-18.01c25.722 44.69 23.875 41.554 24.843 42.976-20.37 100.32-19.82 95.152-19.82 105.68 0 26.32 9.45 39.402 24.71 68.074 11.114 20.87 30.727 34.09 52.665 32.597l50.148-3.441c3.258 16.941 3.106 16.43 3.41 17.297 1.907 5.418-2.03 11.297-8 11.297zm0 0" fill="#000000" opacity="1" data-original="#000000" class=""></path></g></svg>