<svg xmlns="http://www.w3.org/2000/svg" version="1.1" xmlns:xlink="http://www.w3.org/1999/xlink" width="512" height="512" x="0" y="0" viewBox="0 0 512 512" style="enable-background:new 0 0 512 512" xml:space="preserve" class=""><g><path fill="#e9ccff" d="m201.27 398.02-45.14 96.61a12.526 12.526 0 0 1-3.24-2.33L19.7 359.11a12.747 12.747 0 0 1-2.54-3.65l.01-.01 103.06-38.31a7.051 7.051 0 0 0 1.38 1.92l77.44 77.45a7.406 7.406 0 0 0 2.22 1.51z" opacity="1" data-original="#e9ccff" class=""></path><path fill="#773991" d="M492.3 152.89a12.527 12.527 0 0 1 2.87 4.44l-.01.01-97.03 44.57a7.139 7.139 0 0 0-1.72-2.76l-77.45-77.44a7.218 7.218 0 0 0-1.67-1.25l37.72-103.5a12.773 12.773 0 0 1 4.1 2.74z" opacity="1" data-original="#773991"></path><path fill="#d18ef4" d="m316.75 398.02 39.12 96.61a12.406 12.406 0 0 1-5.69 1.37H161.82a12.406 12.406 0 0 1-5.69-1.37l45.14-96.61a7.221 7.221 0 0 0 2.98.64h109.52a7.221 7.221 0 0 0 2.98-.64z" opacity="1" data-original="#d18ef4"></path><path fill="#994db2" d="M496 161.82v188.36a12.545 12.545 0 0 1-1.23 5.42l-96.91-38.62a7.186 7.186 0 0 0 .7-3.11V204.35a6.928 6.928 0 0 0-.43-2.44l97.03-44.57.01-.01a12.378 12.378 0 0 1 .83 4.49z" opacity="1" data-original="#994db2"></path><path fill="#f6ebff" d="m17.17 355.45-.01.01a12.553 12.553 0 0 1-1.16-5.28V161.82a12.429 12.429 0 0 1 1.11-5.16h.01l102.76 45.25a6.928 6.928 0 0 0-.43 2.44v109.52a7.2 7.2 0 0 0 .78 3.27z" opacity="1" data-original="#f6ebff"></path><path fill="#b55fdd" d="m397.86 316.98 96.91 38.62a12.753 12.753 0 0 1-2.47 3.51L359.11 492.3a12.526 12.526 0 0 1-3.24 2.33l-39.12-96.61a7.239 7.239 0 0 0 2.21-1.51l77.45-77.45a7.088 7.088 0 0 0 1.45-2.08z" opacity="1" data-original="#b55fdd"></path><path fill="#e5c0f9" d="M398.56 204.35v109.52a7.186 7.186 0 0 1-.7 3.11 7.088 7.088 0 0 1-1.45 2.08l-77.45 77.45a7.427 7.427 0 0 1-5.19 2.15H204.25a7.221 7.221 0 0 1-2.98-.64 7.406 7.406 0 0 1-2.22-1.51l-77.44-77.45a7.051 7.051 0 0 1-1.38-1.92 7.2 7.2 0 0 1-.78-3.27V204.35a6.928 6.928 0 0 1 .43-2.44 7.163 7.163 0 0 1 1.73-2.76l77.44-77.44a7.381 7.381 0 0 1 2.39-1.6 7.264 7.264 0 0 1 2.81-.56h109.52a7.294 7.294 0 0 1 3.52.91 7.218 7.218 0 0 1 1.67 1.25l77.45 77.44a7.139 7.139 0 0 1 1.72 2.76 6.928 6.928 0 0 1 .43 2.44z" opacity="1" data-original="#e5c0f9" class=""></path><path fill="#e9ccff" d="m156.26 17.31 45.18 102.8a7.381 7.381 0 0 0-2.39 1.6l-77.44 77.44a7.163 7.163 0 0 0-1.73 2.76L17.12 156.66h-.01a12.746 12.746 0 0 1 2.59-3.77L152.89 19.7a12.525 12.525 0 0 1 3.36-2.4z" opacity="1" data-original="#e9ccff" class=""></path><path fill="#5f1e82" d="M156.25 17.3a12.556 12.556 0 0 1 5.57-1.3h188.36a12.538 12.538 0 0 1 4.83.96l-37.72 103.5a7.294 7.294 0 0 0-3.52-.91H204.25a7.264 7.264 0 0 0-2.81.56l-45.18-102.8z" opacity="1" data-original="#5f1e82"></path><path fill="#a891bc" d="M49.7 359.11a12.747 12.747 0 0 1-2.54-3.65 12.553 12.553 0 0 1-1.16-5.28v-5.447L17.17 355.45l-.01.01a12.747 12.747 0 0 0 2.54 3.65L152.89 492.3a12.526 12.526 0 0 0 3.24 2.33l9.264-19.826z" opacity="1" data-original="#a891bc"></path><path fill="#a06fc1" d="m182.89 492.3-17.5-17.5-9.26 19.83a12.406 12.406 0 0 0 5.69 1.37h30a12.8 12.8 0 0 1-8.93-3.7z" opacity="1" data-original="#a06fc1"></path><path fill="#c1b9c9" d="M46 344.733V169.377L17.12 157h-.01a9.243 9.243 0 0 0-1.11 4.82v188.36a12.553 12.553 0 0 0 1.16 5.28l.01-.01z" opacity="1" data-original="#c1b9c9"></path><path fill="#bfa9d3" d="M46 169.377v-7.557a12.429 12.429 0 0 1 1.11-5.16 12.746 12.746 0 0 1 2.59-3.77L165.12 37.47l-8.86-20.16-.01-.01a12.525 12.525 0 0 0-3.36 2.4L19.7 153.06a8.47 8.47 0 0 0-2.59 3.94h.01z" opacity="1" data-original="#bfa9d3"></path><path fill="#491968" d="m165.12 37.47 17.77-17.77a12.683 12.683 0 0 1 8.93-3.7h-30a12.556 12.556 0 0 0-5.57 1.3l.01.01z" opacity="1" data-original="#491968"></path><path fill="#1c324c" d="M362.649 16.167A17.521 17.521 0 0 0 350.176 11H161.824a17.521 17.521 0 0 0-12.473 5.167L16.167 149.351A17.521 17.521 0 0 0 11 161.824v188.352a17.521 17.521 0 0 0 5.167 12.473l133.184 133.184A17.521 17.521 0 0 0 161.824 501h188.352a17.521 17.521 0 0 0 12.473-5.167l133.184-133.184A17.521 17.521 0 0 0 501 350.176V161.824a17.521 17.521 0 0 0-5.167-12.473zm-5.262 8.881 130.246 130.246-87.716 40.293-76.723-76.722zm36.173 179.3v109.519a2.338 2.338 0 0 1-.688 1.661l-77.444 77.444a2.364 2.364 0 0 1-1.661.687h-109.52a2.334 2.334 0 0 1-1.662-.688l-77.442-77.443a2.335 2.335 0 0 1-.689-1.661V204.346a2.334 2.334 0 0 1 .688-1.661l77.443-77.443a2.335 2.335 0 0 1 1.662-.689h109.52a2.361 2.361 0 0 1 1.661.689l77.443 77.442a2.335 2.335 0 0 1 .689 1.662zM348.219 21l-34.1 93.57c-.116 0-.231-.017-.348-.017h-109.3L163.343 21zm-193.893 4.335 40.921 93.1-77.177 77.179-.021.023L25 154.666zM21 163.833l93.454 41.147v108.971L21 348.7zm133.331 322.838-128.94-128.94 93.174-34.638 76.465 76.466zm9.015 4.329 40.808-87.345h109.482L349.005 491zm194.587-4.593-35.106-86.692 76.689-76.689 87.1 34.7zM491 348.712l-87.441-34.839V204.918L491 164.751z" opacity="1" data-original="#1c324c" class=""></path></g></svg>