<svg xmlns="http://www.w3.org/2000/svg" version="1.1" xmlns:xlink="http://www.w3.org/1999/xlink" width="512" height="512" x="0" y="0" viewBox="0 0 682.667 682.667" style="enable-background:new 0 0 512 512" xml:space="preserve" class=""><g><defs><clipPath id="a" clipPathUnits="userSpaceOnUse"><path d="M0 512h512V0H0Z" fill="#000000" opacity="1" data-original="#000000" class=""></path></clipPath></defs><path d="M0 0h-393.462l68.054 57.538 179.006-16.31 92.522 11.779z" style="fill-opacity:1;fill-rule:nonzero;stroke:none" transform="matrix(1.33333 0 0 -1.33333 603.18 672.667)" fill="#83899b" data-original="#83899b"></path><path d="m0 0-35.417-4.509L13.88-53.007h40z" style="fill-opacity:1;fill-rule:nonzero;stroke:none" transform="matrix(1.33333 0 0 -1.33333 531.34 601.99)" fill="#656a78" data-original="#656a78"></path><path d="m0 0-54.537 51.6-78.357-23.559-5.699-77.925 120.978-100.578z" style="fill-opacity:1;fill-rule:nonzero;stroke:none" transform="matrix(1.33333 0 0 -1.33333 192.79 395.333)" fill="#ff8370" data-original="#ff8370" class=""></path><path d="m0 0 48.187-87.035L159.407-62.5 94.992 23.51Z" style="fill-opacity:1;fill-rule:nonzero;stroke:none" transform="matrix(1.33333 0 0 -1.33333 192.79 395.333)" fill="#d44942" data-original="#d44942"></path><path d="m0 0-4.197 69.965L-52.384 157-70 6.538Z" style="fill-opacity:1;fill-rule:nonzero;stroke:none" transform="matrix(1.33333 0 0 -1.33333 262.636 604.667)" fill="#ff624a" data-original="#ff624a" class=""></path><path d="m0 0 111.026 201.156-121.64-77.925-51.43-135.917Z" style="fill-opacity:1;fill-rule:nonzero;stroke:none" transform="matrix(1.33333 0 0 -1.33333 402.172 347.072)" fill="#ff8370" data-original="#ff8370" class=""></path><path d="m0 0-14.15-392.345L90.345-118.7.345.148" style="fill-opacity:1;fill-rule:nonzero;stroke:none" transform="matrix(1.33333 0 0 -1.33333 550.207 78.864)" fill="#ff624a" data-original="#ff624a" class=""></path><path d="m0 0-59.023 108.073 7.593-243.99z" style="fill-opacity:1;fill-rule:nonzero;stroke:none" transform="matrix(1.33333 0 0 -1.33333 388.02 182.764)" fill="#ff624a" data-original="#ff624a" class=""></path><path d="m0 0-8.647-2.14 23.373 289 64.025-21.5 7.594-243.99z" style="fill-opacity:1;fill-rule:nonzero;stroke:none" transform="matrix(1.33333 0 0 -1.33333 204.32 392.48)" fill="#ff8370" data-original="#ff8370" class=""></path><path d="m0 0-78.357-23.559-5.699-77.925 78.357 40.775z" style="fill-opacity:1;fill-rule:nonzero;stroke:none" transform="matrix(1.33333 0 0 -1.33333 120.074 326.534)" fill="#ff8370" data-original="#ff8370" class=""></path><path d="m0 0-78.357-40.775L42.621-141.353Z" style="fill-opacity:1;fill-rule:nonzero;stroke:none" transform="matrix(1.33333 0 0 -1.33333 112.476 407.48)" fill="#ff624a" data-original="#ff624a" class=""></path><path d="m0 0-5.699-60.709 42.621-141.353L54.537-51.6Z" style="fill-opacity:1;fill-rule:nonzero;stroke:none" transform="matrix(1.33333 0 0 -1.33333 120.074 326.534)" fill="#d44942" data-original="#d44942"></path><path d="m0 0-2.371 98.696-62.044-12.686Z" style="fill-opacity:1;fill-rule:nonzero;stroke:none" transform="matrix(1.33333 0 0 -1.33333 405.333 478.667)" fill="#ff624a" data-original="#ff624a" class=""></path><path d="m0 0-1.983 104.272-111.22-24.535 4.197-69.965z" style="fill-opacity:1;fill-rule:nonzero;stroke:none" transform="matrix(1.33333 0 0 -1.33333 407.977 617.696)" fill="#ff8370" data-original="#ff8370" class=""></path><path d="m0 0-92.522-11.779-4.354 202.967L14.15 392.345Z" style="fill-opacity:1;fill-rule:nonzero;stroke:none" transform="matrix(1.33333 0 0 -1.33333 531.34 601.99)" fill="#d44942" data-original="#d44942"></path><g clip-path="url(#a)" transform="matrix(1.33333 0 0 -1.33333 0 682.667)"><path d="m0 0-6.086 95.413L-9.28 192l95.284 172.635L78.096 9.942Zm-236.925 198.831-4.276-45.552-62.811-32.685 4.342 59.372zm93.121 237.627 50.032-16.8 3.805-96.831c.379-9.647 15.368-9.071 14.988.589l-2.752 70.036 42.039-76.973-25.322-66.92-11.55-30.523-2.126 68.318c-.3 9.644-15.293 9.198-14.993-.466l3.11-99.932-78.991-19.551zm76.747-245.252 45.735 120.866 94.647 60.633-95.062-172.233zm1.348-15.036 41.663 8.519 2.193-66.322zm-16.169-3.505 55.226-72.79-95.184-20.771-40.742 73.588zm-87.265-39.084 36.066-65.141 3.563-59.398-53.637 4.888zm-13.328 15.156-12.272-104.825-29.693 98.478zm-7.73 14.001-35.551-5.376 3.364 35.83zm75.796-155.072-3.417 56.961 97.315 21.236 5.566-87.259zm290.504 267.382L93.986 49.704l7.275 326.283zm15.475-1.343a7.5 7.5 0 0 1-1.022 7.035l-85.99 115.982c-4.165 5.615-8.682 4.567-14.425 4.567l-114.868-73.587-55.168 101.014a7.607 7.607 0 0 1-4.246 3.532l-63.974 21.483c-4.504 1.513-9.479-1.751-9.863-6.505l-22.112-273.401-43.169 40.843c-1.971 1.866-4.899 2.525-7.473 1.687l-78.198-23.51a7.502 7.502 0 0 1-5.32-6.636l-5.699-77.925a7.583 7.583 0 0 1 2.685-6.314l22.393-18.616c7.423-6.17 17.023 5.354 9.589 11.534l-13.716 11.404 60.319 31.388 32.809-108.814-51.807 43.072c-7.421 6.169-17.024-5.354-9.59-11.535l64.102-53.293-61.223-51.761c-5.219-4.413-1.993-13.228 4.842-13.228H43.527c9.652 0 9.668 15 0 15h-282.589L-189.05-.595-13.17-16.62a7.64 7.64 0 0 1 1.628.029l88.91 11.32 38.227-37.608H79.527c-9.652 0-9.667-15 0-15h54.386c6.569 0 9.943 8.239 5.259 12.846L92.204 1.175c.111.229 99.37 272.53 99.37 272.53" style="fill-opacity:1;fill-rule:nonzero;stroke:none" transform="translate(319.972 57.887)" fill="#000000" data-original="#000000" class=""></path></g></g></svg>