<svg xmlns="http://www.w3.org/2000/svg" version="1.1" xmlns:xlink="http://www.w3.org/1999/xlink" xmlns:svgjs="http://svgjs.com/svgjs" width="512" height="512" x="0" y="0" viewBox="0 0 512 512" style="enable-background:new 0 0 512 512" xml:space="preserve" class=""><g><path fill="#f9b409" d="M31.661 460.04a898.296 898.296 0 0 1 109.583-151.09 897.468 897.468 0 0 1 102.899-97.786c6.928-5.612 16.808-5.66 23.777-.099a861.675 861.675 0 0 1 97.873 91.39c51.56 56.263 88.454 111.551 114.547 157.585z" data-original="#d1a08f" class="" opacity="1"></path><path fill="#ff6111" d="M365.793 302.455a861.682 861.682 0 0 0-97.873-91.39c-6.969-5.561-16.849-5.512-23.777.1-1.003.812-2.018 1.649-3.027 2.473a861.37 861.37 0 0 1 94.677 88.817c51.56 56.263 88.454 111.551 114.547 157.585h30c-26.094-46.035-62.988-101.322-114.547-157.585z" data-original="#c68d7a" class="" opacity="1"></path><path fill="#f6df7f" d="M427.75 179.252a39.307 39.307 0 0 0-31.316 31.316c-.441 2.334-3.784 2.334-4.225 0a39.307 39.307 0 0 0-31.316-31.316c-2.334-.441-2.334-3.784 0-4.225a39.307 39.307 0 0 0 31.316-31.316c.441-2.334 3.784-2.334 4.225 0a39.307 39.307 0 0 0 31.316 31.316c2.333.442 2.333 3.784 0 4.225z" data-original="#f6df7f" class=""></path><path fill="#efd06f" d="M427.75 175.027a39.31 39.31 0 0 1-31.316-31.316c-.441-2.334-3.783-2.334-4.225 0a39.279 39.279 0 0 1-12.887 22.401c4.773.026 9.005 2.638 10.801 6.654 1.917 4.287.211 8.277 0 8.748-1.796 4.016-6.028 6.627-10.801 6.654a39.276 39.276 0 0 1 12.887 22.401c.442 2.334 3.784 2.334 4.225 0a39.308 39.308 0 0 1 31.316-31.316c2.333-.442 2.333-3.784 0-4.226z" data-original="#efd06f" class=""></path><path fill="#f6df7f" d="M289.429 89.252a39.307 39.307 0 0 0-31.316 31.316c-.441 2.334-3.784 2.334-4.225 0a39.307 39.307 0 0 0-31.316-31.316c-2.334-.441-2.334-3.784 0-4.225a39.307 39.307 0 0 0 31.316-31.316c.441-2.334 3.784-2.334 4.225 0a39.307 39.307 0 0 0 31.316 31.316c2.334.442 2.334 3.784 0 4.225zM166.108 164.252a39.307 39.307 0 0 0-31.316 31.316c-.441 2.334-3.784 2.334-4.225 0a39.307 39.307 0 0 0-31.316-31.316c-2.334-.441-2.334-3.784 0-4.225a39.307 39.307 0 0 0 31.316-31.316c.441-2.334 3.784-2.334 4.225 0a39.307 39.307 0 0 0 31.316 31.316c2.334.442 2.334 3.784 0 4.225z" data-original="#f6df7f" class=""></path><g fill="#efd06f"><path d="M289.545 85.027a39.31 39.31 0 0 1-31.316-31.316c-.441-2.334-3.784-2.334-4.225 0a39.279 39.279 0 0 1-12.887 22.401c4.773.026 9.005 2.638 10.801 6.654 1.917 4.287.21 8.277 0 8.748-1.796 4.016-6.028 6.628-10.801 6.654a39.276 39.276 0 0 1 12.887 22.401c.442 2.334 3.784 2.334 4.225 0a39.308 39.308 0 0 1 31.316-31.316c2.334-.442 2.334-3.784 0-4.226zM166.108 160.027a39.31 39.31 0 0 1-31.316-31.316c-.441-2.334-3.783-2.334-4.225 0a39.279 39.279 0 0 1-12.887 22.401c4.773.026 9.005 2.638 10.801 6.654 1.917 4.287.21 8.277 0 8.748-1.796 4.016-6.028 6.627-10.801 6.654a39.276 39.276 0 0 1 12.887 22.401c.442 2.334 3.784 2.334 4.225 0a39.308 39.308 0 0 1 31.316-31.316c2.334-.442 2.334-3.784 0-4.226z" fill="#efd06f" data-original="#efd06f" class=""></path></g><path d="M97.855 171.621c12.946 2.449 22.894 12.396 25.342 25.341.875 4.626 4.773 7.857 9.482 7.857 4.708 0 8.606-3.231 9.481-7.857 2.448-12.944 12.395-22.892 25.342-25.341 4.625-.875 7.857-4.775 7.857-9.482 0-4.708-3.232-8.606-7.857-9.481-12.946-2.449-22.893-12.396-25.342-25.341-.875-4.626-4.773-7.857-9.481-7.857-4.709 0-8.607 3.231-9.482 7.857-2.448 12.944-12.396 22.892-25.341 25.341-4.626.875-7.857 4.773-7.857 9.481 0 4.709 3.231 8.607 7.856 9.482zm34.824-27.084a46.315 46.315 0 0 0 17.604 17.602 46.312 46.312 0 0 0-17.602 17.603 46.324 46.324 0 0 0-17.604-17.603 46.324 46.324 0 0 0 17.602-17.602zM364.32 452.54H44.772a895.5 895.5 0 0 1 41.64-63.481 7.5 7.5 0 0 0-12.18-8.756c-16.69 23.218-32.434 47.504-46.87 72.237H7.5c-4.143 0-7.5 3.357-7.5 7.5s3.357 7.5 7.5 7.5h356.82c4.143 0 7.5-3.357 7.5-7.5s-3.357-7.5-7.5-7.5zm-239.678-25.929a7.5 7.5 0 1 0-15 0 7.5 7.5 0 0 0 15 0zm96.535-329.99c12.945 2.449 22.893 12.396 25.342 25.341.875 4.626 4.773 7.857 9.481 7.857s8.606-3.231 9.481-7.856c2.449-12.945 12.396-22.893 25.342-25.342 4.625-.875 7.856-4.774 7.856-9.481 0-4.708-3.231-8.606-7.856-9.481-12.945-2.449-22.893-12.396-25.342-25.341-.875-4.626-4.773-7.857-9.481-7.857s-8.606 3.231-9.481 7.856c-2.449 12.945-12.396 22.892-25.341 25.342-4.626.875-7.857 4.773-7.857 9.481s3.231 8.606 7.856 9.481zM256 69.537a46.336 46.336 0 0 0 17.603 17.603A46.336 46.336 0 0 0 256 104.743a46.34 46.34 0 0 0-17.602-17.603A46.34 46.34 0 0 0 256 69.537zm103.497 117.084c12.946 2.449 22.893 12.396 25.342 25.341.875 4.626 4.773 7.857 9.481 7.857 4.709 0 8.607-3.231 9.482-7.857 2.448-12.944 12.396-22.892 25.342-25.341 4.625-.875 7.857-4.775 7.857-9.482 0-4.708-3.232-8.606-7.857-9.481-12.946-2.449-22.893-12.396-25.342-25.341-.875-4.626-4.773-7.857-9.482-7.857-4.708 0-8.606 3.232-9.481 7.857-2.448 12.944-12.396 22.892-25.341 25.341-4.626.875-7.857 4.773-7.857 9.481 0 4.709 3.231 8.607 7.856 9.482zm34.823-27.084a46.32 46.32 0 0 0 17.603 17.602 46.322 46.322 0 0 0-17.603 17.603 46.329 46.329 0 0 0-17.603-17.603 46.312 46.312 0 0 0 17.603-17.602zm-74.07 148.878a7.5 7.5 0 1 0-15 0 7.5 7.5 0 0 0 15 0zm-128.489 67.5a7.5 7.5 0 1 0 15 0 7.5 7.5 0 0 0-15 0zM504.5 452.54h-19.827c-31.968-55.744-70.076-107.93-113.351-155.152a872.11 872.11 0 0 0-98.725-92.185c-9.792-7.812-23.433-7.758-33.176.133a907.838 907.838 0 0 0-103.758 98.604 906.618 906.618 0 0 0-40.254 48.085 7.5 7.5 0 1 0 11.83 9.222 891.96 891.96 0 0 1 39.584-47.286 892.748 892.748 0 0 1 102.039-96.969c4.224-3.423 10.138-3.449 14.379-.064a856.868 856.868 0 0 1 97.022 90.595c40.594 44.295 76.572 93.032 107.085 145.018H399.32c-4.143 0-7.5 3.357-7.5 7.5s3.357 7.5 7.5 7.5H504.5c4.143 0 7.5-3.357 7.5-7.5a7.5 7.5 0 0 0-7.5-7.501zm-147.679-84.125a7.5 7.5 0 1 0-15 0 7.5 7.5 0 0 0 15 0zm45 45a7.5 7.5 0 1 0-15 0 7.5 7.5 0 0 0 15 0zm-104.071 5.696a7.5 7.5 0 1 0-15 0 7.5 7.5 0 0 0 15 0zm-82.5-125.696a7.5 7.5 0 1 0-15 0 7.5 7.5 0 0 0 15 0zM271 354.391a7.5 7.5 0 1 0-15 0 7.5 7.5 0 0 0 15 0z" fill="#000000" data-original="#000000" class=""></path></g></svg>