<svg xmlns="http://www.w3.org/2000/svg" version="1.1" xmlns:xlink="http://www.w3.org/1999/xlink" xmlns:svgjs="http://svgjs.com/svgjs" width="512" height="512" x="0" y="0" viewBox="0 0 511.999 511.999" style="enable-background:new 0 0 512 512" xml:space="preserve" class=""><g><path d="M256.438 504.499c79.229-.235 144.449-66.441 143.848-145.672-.84-110.65-102.692-228.056-137.177-345.98-1.045-3.572-4.077-5.352-7.108-5.347-3.033-.005-6.065 1.775-7.109 5.347-34.485 117.924-136.337 235.33-137.177 345.98-.601 79.231 64.618 145.437 143.848 145.672" style="" fill="#d9d9d9" data-original="#b2edff" class="" opacity="1"></path><path d="M304.533 488.468h-.876c-79.229-.251-144.449-70.728-143.847-155.071.624-87.545 57.039-179.063 100.13-271.827 7.063-15.204 7.956-32.395 3.238-48.482l-.07-.24c-1.045-3.572-4.077-5.353-7.108-5.347-3.032-.005-6.064 1.775-7.109 5.347C212.169 138.423 99.052 263.411 112.873 380.28c8.443 71.391 70.801 124.219 142.689 124.219h.876c24.688-.073 48.011-6.561 68.411-17.843-6.66 1.052-13.408 1.79-20.316 1.812z" style="" fill="#a1a1a1" data-original="#59d8ff" class="" opacity="1"></path><path d="M334.473 153.604c-11.95-22.655-24.306-46.082-35.216-69.18a7.498 7.498 0 0 0-9.985-3.578 7.499 7.499 0 0 0-3.579 9.984c11.051 23.396 23.486 46.972 35.512 69.771 36.813 69.794 71.583 135.716 71.583 199.6 0 36.618-14.281 71.023-40.212 96.878-25.83 25.753-60.111 39.92-96.575 39.92l-.418-.001c-36.214-.107-70.452-14.611-96.405-40.84-26.048-26.324-40.241-60.87-39.964-97.275.481-63.488 35.016-128.962 71.578-198.28C215.792 113.206 241.64 64.2 256 15.26c4.024 13.715 9.042 27.842 15.336 43.179a7.5 7.5 0 1 0 13.877-5.695c-6.137-14.952-11.011-28.684-14.9-41.979C268.428 4.326 262.671-.001 255.986 0c-6.671 0-12.416 4.317-14.294 10.742-13.917 47.591-39.463 96.024-64.168 142.863-35.791 67.856-72.8 138.023-73.31 205.165-.307 40.424 15.427 78.758 44.302 107.939 28.781 29.086 66.79 45.17 107.023 45.289l.464.001c40.459-.002 78.503-15.722 107.164-44.298 28.775-28.689 44.622-66.866 44.622-107.5 0-67.596-37.272-138.26-73.316-206.597z" fill="#000000" data-original="#000000" class=""></path><path d="M272.745 463.355a7.503 7.503 0 0 0 7.293 5.778c.571 0 1.151-.066 1.73-.203 40.761-9.627 73.321-42.187 82.95-82.947a7.5 7.5 0 0 0-5.575-9.023c-4.026-.957-8.071 1.543-9.023 5.574-8.334 35.282-36.518 63.465-71.8 71.799a7.499 7.499 0 0 0-5.575 9.022z" fill="#000000" data-original="#000000" class=""></path></g></svg>