<svg xmlns="http://www.w3.org/2000/svg" version="1.1" xmlns:xlink="http://www.w3.org/1999/xlink" xmlns:svgjs="http://svgjs.com/svgjs" width="512" height="512" x="0" y="0" viewBox="0 0 480 480" style="enable-background:new 0 0 512 512" xml:space="preserve" class=""><g><path fill="#e1ffcc" d="m240 8-134.03 96v282L240 472l134.03-86V104z" data-original="#e1ffcc"></path><path fill="#f3ffeb" d="M312.44 131.77v61.31c-28.207 55.035-82.904 90.574-144.88 94.02V131.77z" data-original="#f3ffeb"></path><path fill="#9ceb63" d="M374.03 386 240 472l72.44-113.77z" data-original="#9ceb63"></path><path fill="#befa91" d="M312.44 358.23 240 472l-72.44-113.77z" data-original="#befa91" class=""></path><path fill="#9ceb63" d="M167.56 358.23 240 472l-134.03-86z" data-original="#9ceb63"></path><g fill="#befa91"><path d="m240 472-134.03-86 33-14.88 74.527 59.253zM374.03 104v282l-61.59-27.77V131.77z" fill="#befa91" data-original="#befa91" class=""></path><path d="M167.56 131.77v226.46L105.97 386V104z" fill="#befa91" data-original="#befa91" class=""></path></g><path fill="#daffbf" d="M138.97 118.88v252.24l-33 14.88V104z" data-original="#daffbf" class=""></path><path fill="#9ceb63" d="m374.03 104-61.59 27.77L240 8z" data-original="#9ceb63"></path><path fill="#befa91" d="m240 8 72.44 123.77H167.56z" data-original="#befa91" class=""></path><path fill="#9ceb63" d="m240 8-72.44 123.77L105.97 104z" data-original="#9ceb63"></path><path fill="#befa91" d="m240 8-30.98 52.93-70.05 57.95-33-14.88z" data-original="#befa91" class=""></path><path d="m378.691 97.496-134.032-96a7.999 7.999 0 0 0-9.316 0l-134.032 96A7.999 7.999 0 0 0 97.969 104v282a8 8 0 0 0 3.68 6.733l134.032 86a8 8 0 0 0 8.641 0l134.032-86a8 8 0 0 0 3.68-6.733V104a8.01 8.01 0 0 0-3.343-6.504zM242.437 460.931l-60.295-94.706h115.717l-24.952 39.193a8 8 0 0 0 13.496 8.593l29.06-45.645 41.837 18.865zM113.968 116.384l45.597 20.56v216.114l-45.597 20.56zm111.29 23.391h79.177v210.451h-128.87V133.944L240 23.838l58.484 99.936h-73.226a8 8 0 0 0 0 16.001zm90.448-18.25-49.833-85.153 92.21 66.045zm-151.412-.001-42.376-19.108 92.21-66.045zm.243 246.843 49.198 77.276-91.035-58.412zm155.899-15.31V136.943l45.597-20.56v257.234z" fill="#000000" data-original="#000000" class=""></path></g></svg>