<svg xmlns="http://www.w3.org/2000/svg" version="1.1" xmlns:xlink="http://www.w3.org/1999/xlink" width="512" height="512" x="0" y="0" viewBox="0 0 480.013 480.013" style="enable-background:new 0 0 512 512" xml:space="preserve" class=""><g><path d="M169.522 279.805 84.53 208.973l7.08 127.488z" style="" fill="#00d3e1" data-original="#00d3e1" class=""></path><path d="m270.37 124.013 59.16-59.16-89.36-52.128-90.168 60.12 43.864 51.168z" style="" fill="#ffe4b6" data-original="#ffe4b6" class=""></path><path d="m431.906 203.101-82.904 62.184 34.568 76.056z" style="" fill="#00d3e1" data-original="#00d3e1" class=""></path><path d="M76.754 213.237 14.106 317.661l69.608 20.888z" style="" fill="#ffe4b6" data-original="#ffe4b6" class=""></path><path d="M416.026 133.685c4.392-9.552 12.12-17.272 21.672-21.672a44.277 44.277 0 0 1-21.672-21.672c-4.392 9.552-12.12 17.272-21.672 21.672 9.552 4.4 17.28 12.12 21.672 21.672z" style="" fill="#ffc34c" data-original="#ffc34c"></path><path d="M326.69 468.013h23.336l109.416-145.888-72.592 33zM390.898 344.493l76.392-34.72-27.784-104.168z" style="" fill="#ffe4b6" data-original="#ffe4b6" class=""></path><path d="m330.706 74.989-54.792 54.792-22.376 320.744 44.272-95.936z" style="" fill="#00d3e1" data-original="#00d3e1" class=""></path><path d="m148.994 83.949 14.424 180.352 2.528 2.104 12.64 10.536a3.89 3.89 0 0 1 1.064 1.408c.08.168.064.368.12.544.12.368.256.728.256 1.12v188h31.712L188.13 129.605l-39.136-45.656z" style="" fill="#ffe4b6" data-original="#ffe4b6" class=""></path><path d="M138.802 468.013h33.224V287.869l-79.184 57.584zM196.314 132.013l23.448 336h24.528l23.448-336zM343.994 273.613l-38.64 83.736-.008.032-51.064 110.632h63.344l61.944-116.144zM14.546 326.141l52.272 141.872H130.25L84.97 347.269z" style="" fill="#00d3e1" data-original="#00d3e1" class=""></path><path d="M48.026 69.685c4.392-9.552 12.12-17.272 21.672-21.672-9.552-4.4-17.28-12.12-21.672-21.672-4.392 9.552-12.12 17.272-21.672 21.672 9.552 4.4 17.28 12.12 21.672 21.672z" style="" fill="#ffc34c" data-original="#ffc34c"></path><path d="m479.754 309.949-32-120a8.018 8.018 0 0 0-5.112-5.504c-2.504-.848-5.288-.432-7.416 1.168l-96 72c-.976.728-1.656 1.688-2.2 2.712-.064.128-.208.2-.272.328l-21.224 45.984 28.432-241.696c.064-.544 0-1.072-.048-1.608-.008-.12.048-.232.032-.352-.008-.048-.04-.088-.048-.136-.16-1.064-.552-2.048-1.104-2.96-.128-.208-.256-.384-.4-.584-.632-.864-1.384-1.656-2.352-2.216l-96-56a8.03 8.03 0 0 0-8.472.256l-96 64c-.856.576-1.528 1.328-2.096 2.152-.12.176-.24.336-.344.528-.488.848-.84 1.76-.992 2.736-.008.056-.048.096-.056.144-.016.12.04.24.024.36-.04.456-.112.912-.072 1.376l14.024 175.32-64.928-54.112a8.06 8.06 0 0 0-6.456-1.744 8.01 8.01 0 0 0-5.52 3.776l-72 120a8.039 8.039 0 0 0-1.104 3.4c-.032.392.128.776.152 1.176.048.776.024 1.56.296 2.312l52.056 141.248H32.026v16h352v-16h-16l110.4-147.2c.12-.16.128-.368.24-.536a7.875 7.875 0 0 0 .96-2.152c.088-.312.2-.584.248-.904.16-1.072.176-2.168-.12-3.272zM223.49 464.013l-22.88-328h62.848l-22.88 328H223.49zm85.488-104.96v-.008l34.992-75.816 31.144 68.504-59.888 112.28H260.53l48.448-104.96zm44.992-92.496 69.816-52.36-40.728 116.368-29.088-64.008zm85.024-47.376 23.56 88.352-64.792 29.448 41.232-117.8zM259.042 429.053l20.752-297.496 45.592-45.592-31.472 267.528-34.872 75.56zm63.984-363.36-54.312 54.32h-73.008l-39.728-46.352 84.336-56.216 82.712 48.248zM154.45 272.453l8.56 7.136-67.816 49.32-6.16-110.968 65.408 54.504.008.008zm-80.968-45.984 5.92 106.608-59.224-17.76 53.304-88.848zm94.544 69.256v168.288H141.57L97.65 346.901l70.376-51.176zM69.602 464.013 21.074 332.277l60.856 18.256 42.552 113.48h-54.88zm114.424-184c0-.76-.28-1.448-.48-2.16-.112-.384-.096-.8-.256-1.168a8.059 8.059 0 0 0-2.136-2.816l-13.872-11.56L153.97 95.893l30.272 35.312 23.208 332.808h-23.424v-184zm160 184h-10.664l56.448-105.84 57.048-25.928-98.832 131.768h-4zM8.026 56.013c17.648 0 32 14.352 32 32 0 4.424 3.584 8 8 8s8-3.576 8-8c0-17.648 14.352-32 32-32 4.416 0 8-3.576 8-8s-3.584-8-8-8c-17.648 0-32-14.352-32-32 0-4.424-3.584-8-8-8s-8 3.576-8 8c0 17.648-14.352 32-32 32-4.416 0-8 3.576-8 8s3.584 8 8 8zm40-21.496a48.39 48.39 0 0 0 13.496 13.496 48.39 48.39 0 0 0-13.496 13.496A48.39 48.39 0 0 0 34.53 48.013a48.39 48.39 0 0 0 13.496-13.496z" style="" fill="#120536" data-original="#120536" class=""></path><path d="M408.026 152.013c0 4.424 3.584 8 8 8s8-3.576 8-8c0-17.648 14.352-32 32-32 4.416 0 8-3.576 8-8s-3.584-8-8-8c-17.648 0-32-14.352-32-32 0-4.424-3.584-8-8-8s-8 3.576-8 8c0 17.648-14.352 32-32 32-4.416 0-8 3.576-8 8 0 4.424 3.584 8 8 8 17.648 0 32 14.352 32 32zm8-53.496a48.496 48.496 0 0 0 13.496 13.496 48.496 48.496 0 0 0-13.496 13.496 48.496 48.496 0 0 0-13.496-13.496 48.39 48.39 0 0 0 13.496-13.496zM400.026 464.013h16v16h-16zM432.026 464.013h16v16h-16z" style="" fill="#120536" data-original="#120536" class=""></path></g></svg>