<svg xmlns="http://www.w3.org/2000/svg" version="1.1" xmlns:xlink="http://www.w3.org/1999/xlink" xmlns:svgjs="http://svgjs.com/svgjs" width="512" height="512" x="0" y="0" viewBox="0 0 682.667 682.667" style="enable-background:new 0 0 512 512" xml:space="preserve" class=""><g><defs><clipPath id="a" clipPathUnits="userSpaceOnUse"><path d="M0 512h512V0H0Z" fill="#000000" data-original="#000000"></path></clipPath></defs><path d="M0 0h-182.66l33.743 107.96h115.174z" style="fill-opacity:1;fill-rule:nonzero;stroke:none" transform="matrix(1.33333 0 0 -1.33333 253.547 540.276)" fill="#ffe76c" data-original="#ffe76c"></path><path d="m0 0 146.609 130.623H31.435L-115.174 0Z" style="fill-opacity:1;fill-rule:nonzero;stroke:none" transform="matrix(1.33333 0 0 -1.33333 208.556 396.33)" fill="#fef2bc" data-original="#fef2bc"></path><path d="m0 0-33.743 107.96 146.609 130.623 33.742-107.961Z" style="fill-opacity:1;fill-rule:nonzero;stroke:none" transform="matrix(1.33333 0 0 -1.33333 253.547 540.276)" fill="#ffda00" data-original="#ffda00"></path><path d="M0 0h-182.66l33.742 107.96h115.175z" style="fill-opacity:1;fill-rule:nonzero;stroke:none" transform="matrix(1.33333 0 0 -1.33333 496.798 540.276)" fill="#ffe76c" data-original="#ffe76c"></path><path d="m0 0 131.901 115.896H16.728L-115.175 0Z" style="fill-opacity:1;fill-rule:nonzero;stroke:none" transform="matrix(1.33333 0 0 -1.33333 451.807 396.33)" fill="#fef2bc" data-original="#fef2bc"></path><path d="m0 0-33.743 107.96L98.158 223.855l33.743-107.959Z" style="fill-opacity:1;fill-rule:nonzero;stroke:none" transform="matrix(1.33333 0 0 -1.33333 496.798 540.276)" fill="#ffda00" data-original="#ffda00"></path><path d="m0 0-33.743 107.96L98.158 223.855l33.743-107.959Z" style="fill-opacity:1;fill-rule:nonzero;stroke:none" transform="matrix(1.33333 0 0 -1.33333 496.798 540.276)" fill="#ffda00" data-original="#ffda00"></path><path d="M0 0h-182.66l33.742 107.96h115.175z" style="fill-opacity:1;fill-rule:nonzero;stroke:none" transform="matrix(1.33333 0 0 -1.33333 377.52 396.378)" fill="#ffe76c" data-original="#ffe76c"></path><path d="m0 0 131.902 115.896H16.728L-115.175 0Z" style="fill-opacity:1;fill-rule:nonzero;stroke:none" transform="matrix(1.33333 0 0 -1.33333 332.53 252.43)" fill="#fef2bc" data-original="#fef2bc"></path><path d="m0 0-33.743 107.96L98.159 223.856l33.742-107.96Z" style="fill-opacity:1;fill-rule:nonzero;stroke:none" transform="matrix(1.33333 0 0 -1.33333 377.52 396.378)" fill="#ffda00" data-original="#ffda00"></path><g clip-path="url(#a)" transform="matrix(1.33333 0 0 -1.33333 0 682.667)"><path d="M0 0c6.021-15.132 17.858-27.177 32.829-33.403l.625-.26-.318-.13C18.136-39.936 6.234-51.911.13-67.006l-.13-.32-.129.32c-6.104 15.095-18.006 27.07-33.007 33.213l-.317.13.317.13C-18.135-27.391-6.233-15.414-.129-.32z" style="fill-opacity:1;fill-rule:nonzero;stroke:none" transform="translate(316.594 414.288)" fill="#ffffff" data-original="#ffffff"></path><path d="M0 0c5.968-14.998 17.701-26.937 32.539-33.107l.619-.258-.314-.129C17.975-39.583 6.179-51.453.128-66.414L0-66.731l-.128.317c-6.051 14.961-17.847 26.831-32.716 32.92l-.314.129.314.129C-17.975-27.148-6.179-15.278-.128-.316z" style="fill-opacity:1;fill-rule:nonzero;stroke:none" transform="translate(98.83 140.158)" fill="#f6eeeb" data-original="#f6eeeb"></path><path d="M0 0h-58.486l33.743 107.96H90.431L124.174 0H66.002" style="stroke-width:15;stroke-linecap:round;stroke-linejoin:round;stroke-miterlimit:10;stroke-dasharray:none;stroke-opacity:1" transform="translate(65.986 106.793)" fill="none" stroke="#000000" stroke-width="15" stroke-linecap="round" stroke-linejoin="round" stroke-miterlimit="10" stroke-dasharray="none" stroke-opacity="" data-original="#000000" class=""></path><path d="m0 0-82.115-73.161H33.059" style="stroke-width:15;stroke-linecap:round;stroke-linejoin:round;stroke-miterlimit:10;stroke-dasharray:none;stroke-opacity:1" transform="translate(123.358 287.914)" fill="none" stroke="#000000" stroke-width="15" stroke-linecap="round" stroke-linejoin="round" stroke-miterlimit="10" stroke-dasharray="none" stroke-opacity="" data-original="#000000" class=""></path><path d="M0 0h38.669L4.927 107.96h-115.175L-143.99 0h104.05" style="stroke-width:15;stroke-linecap:round;stroke-linejoin:round;stroke-miterlimit:10;stroke-dasharray:none;stroke-opacity:1" transform="translate(333.929 106.793)" fill="none" stroke="#000000" stroke-width="15" stroke-linecap="round" stroke-linejoin="round" stroke-miterlimit="10" stroke-dasharray="none" stroke-opacity="" data-original="#000000" class=""></path><path d="m0 0 131.901 115.896H76.187" style="stroke-width:15;stroke-linecap:round;stroke-linejoin:round;stroke-miterlimit:10;stroke-dasharray:none;stroke-opacity:1" transform="translate(338.856 214.753)" fill="none" stroke="#000000" stroke-width="15" stroke-linecap="round" stroke-linejoin="round" stroke-miterlimit="10" stroke-dasharray="none" stroke-opacity="" data-original="#000000" class=""></path><path d="m0 0-33.743 107.96L98.158 223.855l33.743-107.959Z" style="stroke-width:15;stroke-linecap:round;stroke-linejoin:round;stroke-miterlimit:10;stroke-dasharray:none;stroke-opacity:1" transform="translate(372.599 106.793)" fill="none" stroke="#000000" stroke-width="15" stroke-linecap="round" stroke-linejoin="round" stroke-miterlimit="10" stroke-dasharray="none" stroke-opacity="" data-original="#000000" class=""></path><path d="M0 0h-182.66l33.742 107.96h115.175z" style="stroke-width:15;stroke-linecap:round;stroke-linejoin:round;stroke-miterlimit:10;stroke-dasharray:none;stroke-opacity:1" transform="translate(283.14 214.717)" fill="none" stroke="#000000" stroke-width="15" stroke-linecap="round" stroke-linejoin="round" stroke-miterlimit="10" stroke-dasharray="none" stroke-opacity="" data-original="#000000" class=""></path><path d="m0 0-33.105-29.088H82.069" style="stroke-width:15;stroke-linecap:round;stroke-linejoin:round;stroke-miterlimit:10;stroke-dasharray:none;stroke-opacity:1" transform="translate(167.328 351.765)" fill="none" stroke="#000000" stroke-width="15" stroke-linecap="round" stroke-linejoin="round" stroke-miterlimit="10" stroke-dasharray="none" stroke-opacity="" data-original="#000000" class=""></path><path d="M0 0h-115.175l-65.951-57.948" style="stroke-width:15;stroke-linecap:round;stroke-linejoin:round;stroke-miterlimit:10;stroke-dasharray:none;stroke-opacity:1" transform="translate(381.3 438.573)" fill="none" stroke="#000000" stroke-width="15" stroke-linecap="round" stroke-linejoin="round" stroke-miterlimit="10" stroke-dasharray="none" stroke-opacity="" data-original="#000000" class=""></path><path d="m0 0 50.895 44.718 33.742-107.96-131.902-115.897-33.743 107.96 52.486 46.117" style="stroke-width:15;stroke-linecap:round;stroke-linejoin:round;stroke-miterlimit:10;stroke-dasharray:none;stroke-opacity:1" transform="translate(330.405 393.856)" fill="none" stroke="#000000" stroke-width="15" stroke-linecap="round" stroke-linejoin="round" stroke-miterlimit="10" stroke-dasharray="none" stroke-opacity="" data-original="#000000" class=""></path><path d="M0 0v0c6.021-15.132 17.858-27.177 32.829-33.403l.625-.26-.318-.13C18.136-39.936 6.234-51.911.13-67.006l-.13-.32-.129.32c-6.104 15.095-18.006 27.07-33.007 33.213l-.317.13.317.13C-18.135-27.391-6.233-15.414-.129-.32z" style="stroke-width:15;stroke-linecap:round;stroke-linejoin:round;stroke-miterlimit:10;stroke-dasharray:none;stroke-opacity:1" transform="translate(316.594 414.288)" fill="none" stroke="#000000" stroke-width="15" stroke-linecap="round" stroke-linejoin="round" stroke-miterlimit="10" stroke-dasharray="none" stroke-opacity="" data-original="#000000" class=""></path><path d="M0 0v0c5.968-14.998 17.701-26.937 32.539-33.107l.619-.258-.314-.129C17.975-39.583 6.179-51.453.128-66.414L0-66.731l-.128.317c-6.051 14.961-17.847 26.831-32.716 32.92l-.314.129.314.129C-17.975-27.148-6.179-15.278-.128-.316z" style="stroke-width:15;stroke-linecap:round;stroke-linejoin:round;stroke-miterlimit:10;stroke-dasharray:none;stroke-opacity:1" transform="translate(98.83 140.158)" fill="none" stroke="#000000" stroke-width="15" stroke-linecap="round" stroke-linejoin="round" stroke-miterlimit="10" stroke-dasharray="none" stroke-opacity="" data-original="#000000" class=""></path></g></g></svg>