<svg xmlns="http://www.w3.org/2000/svg" version="1.1" xmlns:xlink="http://www.w3.org/1999/xlink" xmlns:svgjs="http://svgjs.com/svgjs" width="512" height="512" x="0" y="0" viewBox="0 0 682.667 682.667" style="enable-background:new 0 0 512 512" xml:space="preserve" class=""><g><defs><clipPath id="a" clipPathUnits="userSpaceOnUse"><path d="M0 512h512V0H0Z" fill="#000000" data-original="#000000"></path></clipPath></defs><g clip-path="url(#a)" transform="matrix(1.33333 0 0 -1.33333 0 682.667)"><path d="M0 0c0-31.15-25.26-56.41-56.42-56.41h-174.89V56.42h174.89C-25.26 56.42 0 31.16 0 0" style="fill-opacity:1;fill-rule:nonzero;stroke:none" transform="translate(327.71 255.995)" fill="#87523e" data-original="#87523e" class=""></path><path d="M0 0c0-31.15-25.26-56.41-56.42-56.41h-70.99C-144.97-43.8-156.42-23.21-156.42 0c0 23.22 11.45 43.81 29.01 56.42h70.99C-25.26 56.42 0 31.16 0 0" style="fill-opacity:1;fill-rule:nonzero;stroke:none" transform="translate(327.71 255.995)" fill="#7c4b37" data-original="#7c4b37" class=""></path><path d="M0 0h174.897c31.156 0 56.414 25.258 56.414 56.414 0 31.156-25.258 56.414-56.414 56.414H0" style="stroke-width:15;stroke-linecap:round;stroke-linejoin:round;stroke-miterlimit:10;stroke-dasharray:none;stroke-opacity:1" transform="translate(96.397 199.584)" fill="none" stroke="#000000" stroke-width="15" stroke-linecap="round" stroke-linejoin="round" stroke-miterlimit="10" stroke-dasharray="none" stroke-opacity="" data-original="#000000" class=""></path><path d="M0 0c0-31.156-25.257-56.414-56.414-56.414-31.156 0-56.414 25.258-56.414 56.414 0 31.156 25.258 56.414 56.414 56.414C-25.257 56.414 0 31.156 0 0" style="fill-opacity:1;fill-rule:nonzero;stroke:none" transform="translate(152.811 255.998)" fill="#d9b4a6" data-original="#d9b4a6" class=""></path><path d="M0 0a56.16 56.16 0 0 1-6-25.311c0-31.156 25.258-56.414 56.414-56.414 31.157 0 56.414 25.258 56.414 56.414 0 31.157-25.257 56.415-56.414 56.415a56.162 56.162 0 0 1-26.715-6.719" style="stroke-width:15;stroke-linecap:round;stroke-linejoin:round;stroke-miterlimit:10;stroke-dasharray:none;stroke-opacity:1" transform="translate(45.983 281.309)" fill="none" stroke="#000000" stroke-width="15" stroke-linecap="round" stroke-linejoin="round" stroke-miterlimit="10" stroke-dasharray="none" stroke-opacity="" data-original="#000000" class=""></path><path d="M0 0c13.186 0 23.875-10.689 23.875-23.875S13.186-47.75 0-47.75s-23.875 10.689-23.875 23.875" style="stroke-width:15;stroke-linecap:round;stroke-linejoin:round;stroke-miterlimit:10;stroke-dasharray:none;stroke-opacity:1" transform="translate(96.397 279.873)" fill="none" stroke="#000000" stroke-width="15" stroke-linecap="round" stroke-linejoin="round" stroke-miterlimit="10" stroke-dasharray="none" stroke-opacity="" data-original="#000000" class=""></path><path d="M0 0h65.152" style="stroke-width:15;stroke-linecap:round;stroke-linejoin:round;stroke-miterlimit:10;stroke-dasharray:none;stroke-opacity:1" transform="translate(146.356 285.114)" fill="none" stroke="#000000" stroke-width="15" stroke-linecap="round" stroke-linejoin="round" stroke-miterlimit="10" stroke-dasharray="none" stroke-opacity="" data-original="#000000" class=""></path><path d="M0 0h65.152" style="stroke-width:15;stroke-linecap:round;stroke-linejoin:round;stroke-miterlimit:10;stroke-dasharray:none;stroke-opacity:1" transform="translate(146.356 228.472)" fill="none" stroke="#000000" stroke-width="15" stroke-linecap="round" stroke-linejoin="round" stroke-miterlimit="10" stroke-dasharray="none" stroke-opacity="" data-original="#000000" class=""></path><path d="M0 0c31.156 0 56.414 25.258 56.414 56.414 0 31.156-25.258 56.414-56.414 56.414h-174.897V0Z" style="fill-opacity:1;fill-rule:nonzero;stroke:none" transform="translate(415.603 199.584)" fill="#aa6a50" data-original="#aa6a50"></path><path d="M0 0c0-31.15-25.26-56.41-56.42-56.41h-21.75c31.16 0 56.41 25.26 56.41 56.41 0 31.16-25.25 56.42-56.41 56.42h21.75C-25.26 56.42 0 31.16 0 0" style="fill-opacity:1;fill-rule:nonzero;stroke:none" transform="translate(472.02 255.995)" fill="#935b44" data-original="#935b44"></path><path d="M0 0c31.156 0 56.414 25.258 56.414 56.414 0 31.156-25.258 56.414-56.414 56.414h-174.897" style="stroke-width:15;stroke-linecap:round;stroke-linejoin:round;stroke-miterlimit:10;stroke-dasharray:none;stroke-opacity:1" transform="translate(415.603 199.584)" fill="none" stroke="#000000" stroke-width="15" stroke-linecap="round" stroke-linejoin="round" stroke-miterlimit="10" stroke-dasharray="none" stroke-opacity="" data-original="#000000" class=""></path><path d="M0 0c0-31.156-25.257-56.414-56.414-56.414-31.156 0-56.414 25.258-56.414 56.414 0 31.156 25.258 56.414 56.414 56.414C-25.257 56.414 0 31.156 0 0" style="fill-opacity:1;fill-rule:nonzero;stroke:none" transform="translate(297.12 255.998)" fill="#d9b4a6" data-original="#d9b4a6" class=""></path><path d="M0 0c0-31.156-25.257-56.414-56.414-56.414-31.156 0-56.414 25.258-56.414 56.414 0 31.156 25.258 56.414 56.414 56.414C-25.257 56.414 0 31.156 0 0Z" style="stroke-width:15;stroke-linecap:round;stroke-linejoin:round;stroke-miterlimit:10;stroke-dasharray:none;stroke-opacity:1" transform="translate(297.12 255.998)" fill="none" stroke="#000000" stroke-width="15" stroke-linecap="round" stroke-linejoin="round" stroke-miterlimit="10" stroke-dasharray="none" stroke-opacity="" data-original="#000000" class=""></path><path d="M0 0c13.186 0 23.875-10.689 23.875-23.875S13.186-47.75 0-47.75s-23.875 10.689-23.875 23.875" style="stroke-width:15;stroke-linecap:round;stroke-linejoin:round;stroke-miterlimit:10;stroke-dasharray:none;stroke-opacity:1" transform="translate(240.706 279.873)" fill="none" stroke="#000000" stroke-width="15" stroke-linecap="round" stroke-linejoin="round" stroke-miterlimit="10" stroke-dasharray="none" stroke-opacity="" data-original="#000000" class=""></path><path d="M0 0h65.152" style="stroke-width:15;stroke-linecap:round;stroke-linejoin:round;stroke-miterlimit:10;stroke-dasharray:none;stroke-opacity:1" transform="translate(290.664 285.114)" fill="none" stroke="#000000" stroke-width="15" stroke-linecap="round" stroke-linejoin="round" stroke-miterlimit="10" stroke-dasharray="none" stroke-opacity="" data-original="#000000" class=""></path><path d="M0 0h86.923" style="stroke-width:15;stroke-linecap:round;stroke-linejoin:round;stroke-miterlimit:10;stroke-dasharray:none;stroke-opacity:1" transform="translate(343.452 254.028)" fill="none" stroke="#000000" stroke-width="15" stroke-linecap="round" stroke-linejoin="round" stroke-miterlimit="10" stroke-dasharray="none" stroke-opacity="" data-original="#000000" class=""></path><path d="M0 0c31.157 0 56.414 25.258 56.414 56.414 0 31.156-25.257 56.414-56.414 56.414h-174.896V0Z" style="fill-opacity:1;fill-rule:nonzero;stroke:none" transform="translate(343.448 312.412)" fill="#bb7c63" data-original="#bb7c63"></path><path d="M0 0c0-31.16-25.26-56.41-56.41-56.41h-21.75c31.15 0 56.41 25.25 56.41 56.41 0 31.16-25.26 56.42-56.41 56.42h21.75C-25.26 56.42 0 31.16 0 0" style="fill-opacity:1;fill-rule:nonzero;stroke:none" transform="translate(399.86 368.825)" fill="#aa6a50" data-original="#aa6a50"></path><path d="M0 0h-108.115v-112.828H66.782c31.156 0 56.414 25.258 56.414 56.414C123.196-25.258 97.938 0 66.782 0H34" style="stroke-width:15;stroke-linecap:round;stroke-linejoin:round;stroke-miterlimit:10;stroke-dasharray:none;stroke-opacity:1" transform="translate(276.666 425.24)" fill="none" stroke="#000000" stroke-width="15" stroke-linecap="round" stroke-linejoin="round" stroke-miterlimit="10" stroke-dasharray="none" stroke-opacity="" data-original="#000000" class=""></path><path d="M0 0c0-31.156-25.257-56.414-56.414-56.414S-112.828-31.156-112.828 0c0 31.156 25.257 56.414 56.414 56.414S0 31.156 0 0" style="fill-opacity:1;fill-rule:nonzero;stroke:none" transform="translate(224.966 368.826)" fill="#d9b4a6" data-original="#d9b4a6" class=""></path><path d="M0 0c0-31.156-25.257-56.414-56.414-56.414S-112.828-31.156-112.828 0c0 31.156 25.257 56.414 56.414 56.414S0 31.156 0 0Z" style="stroke-width:15;stroke-linecap:round;stroke-linejoin:round;stroke-miterlimit:10;stroke-dasharray:none;stroke-opacity:1" transform="translate(224.966 368.826)" fill="none" stroke="#000000" stroke-width="15" stroke-linecap="round" stroke-linejoin="round" stroke-miterlimit="10" stroke-dasharray="none" stroke-opacity="" data-original="#000000" class=""></path><path d="M0 0c13.186 0 23.875-10.689 23.875-23.875S13.186-47.75 0-47.75s-23.875 10.689-23.875 23.875" style="stroke-width:15;stroke-linecap:round;stroke-linejoin:round;stroke-miterlimit:10;stroke-dasharray:none;stroke-opacity:1" transform="translate(168.552 392.701)" fill="none" stroke="#000000" stroke-width="15" stroke-linecap="round" stroke-linejoin="round" stroke-miterlimit="10" stroke-dasharray="none" stroke-opacity="" data-original="#000000" class=""></path><path d="M0 0h26.821" style="stroke-width:15;stroke-linecap:round;stroke-linejoin:round;stroke-miterlimit:10;stroke-dasharray:none;stroke-opacity:1" transform="translate(218.51 397.942)" fill="none" stroke="#000000" stroke-width="15" stroke-linecap="round" stroke-linejoin="round" stroke-miterlimit="10" stroke-dasharray="none" stroke-opacity="" data-original="#000000" class=""></path><path d="M0 0h93.567" style="stroke-width:15;stroke-linecap:round;stroke-linejoin:round;stroke-miterlimit:10;stroke-dasharray:none;stroke-opacity:1" transform="translate(273.433 374.805)" fill="none" stroke="#000000" stroke-width="15" stroke-linecap="round" stroke-linejoin="round" stroke-miterlimit="10" stroke-dasharray="none" stroke-opacity="" data-original="#000000" class=""></path><path d="M0 0h45.777" style="stroke-width:15;stroke-linecap:round;stroke-linejoin:round;stroke-miterlimit:10;stroke-dasharray:none;stroke-opacity:1" transform="translate(287.668 342.805)" fill="none" stroke="#000000" stroke-width="15" stroke-linecap="round" stroke-linejoin="round" stroke-miterlimit="10" stroke-dasharray="none" stroke-opacity="" data-original="#000000" class=""></path><path d="M0 0c0-31.16-25.25-56.42-56.41-56.42h-205.94V56.41h205.94C-25.25 56.41 0 31.15 0 0" style="fill-opacity:1;fill-rule:nonzero;stroke:none" transform="translate(326.26 143.175)" fill="#aa6a50" data-original="#aa6a50"></path><path d="M0 0c0-31.16-25.25-56.42-56.41-56.42h-97.06c-17.56 12.61-29.009 33.2-29.009 56.42 0 23.21 11.449 43.8 29 56.41h97.069C-25.25 56.41 0 31.15 0 0" style="fill-opacity:1;fill-rule:nonzero;stroke:none" transform="translate(326.26 143.175)" fill="#935b44" data-original="#935b44"></path><path d="M0 0h205.937c31.156 0 56.414 25.258 56.414 56.414 0 31.157-25.258 56.414-56.414 56.414H0" style="stroke-width:15;stroke-linecap:round;stroke-linejoin:round;stroke-miterlimit:10;stroke-dasharray:none;stroke-opacity:1" transform="translate(63.914 86.756)" fill="none" stroke="#000000" stroke-width="15" stroke-linecap="round" stroke-linejoin="round" stroke-miterlimit="10" stroke-dasharray="none" stroke-opacity="" data-original="#000000" class=""></path><path d="M0 0c0-31.156-25.257-56.414-56.414-56.414S-112.828-31.156-112.828 0c0 31.157 25.257 56.414 56.414 56.414S0 31.157 0 0" style="fill-opacity:1;fill-rule:nonzero;stroke:none" transform="translate(120.328 143.17)" fill="#d9b4a6" data-original="#d9b4a6" class=""></path><path d="M0 0c0-31.156-25.257-56.414-56.414-56.414S-112.828-31.156-112.828 0c0 31.157 25.257 56.414 56.414 56.414S0 31.157 0 0Z" style="stroke-width:15;stroke-linecap:round;stroke-linejoin:round;stroke-miterlimit:10;stroke-dasharray:none;stroke-opacity:1" transform="translate(120.328 143.17)" fill="none" stroke="#000000" stroke-width="15" stroke-linecap="round" stroke-linejoin="round" stroke-miterlimit="10" stroke-dasharray="none" stroke-opacity="" data-original="#000000" class=""></path><path d="M0 0c13.186 0 23.875-10.689 23.875-23.875S13.186-47.75 0-47.75s-23.875 10.689-23.875 23.875" style="stroke-width:15;stroke-linecap:round;stroke-linejoin:round;stroke-miterlimit:10;stroke-dasharray:none;stroke-opacity:1" transform="translate(63.914 167.045)" fill="none" stroke="#000000" stroke-width="15" stroke-linecap="round" stroke-linejoin="round" stroke-miterlimit="10" stroke-dasharray="none" stroke-opacity="" data-original="#000000" class=""></path><path d="M0 0h125.152" style="stroke-width:15;stroke-linecap:round;stroke-linejoin:round;stroke-miterlimit:10;stroke-dasharray:none;stroke-opacity:1" transform="translate(120.18 143.17)" fill="none" stroke="#000000" stroke-width="15" stroke-linecap="round" stroke-linejoin="round" stroke-miterlimit="10" stroke-dasharray="none" stroke-opacity="" data-original="#000000" class=""></path><path d="M0 0h134.083" style="stroke-width:15;stroke-linecap:round;stroke-linejoin:round;stroke-miterlimit:10;stroke-dasharray:none;stroke-opacity:1" transform="translate(113.952 117.1)" fill="none" stroke="#000000" stroke-width="15" stroke-linecap="round" stroke-linejoin="round" stroke-miterlimit="10" stroke-dasharray="none" stroke-opacity="" data-original="#000000" class=""></path><path d="M0 0c31.157 0 56.414 25.258 56.414 56.414 0 31.157-25.257 56.414-56.414 56.414h-234.896V0Z" style="fill-opacity:1;fill-rule:nonzero;stroke:none" transform="translate(448.086 86.756)" fill="#bb7c63" data-original="#bb7c63"></path><path d="M0 0c0-31.16-25.26-56.42-56.41-56.42h-21.76c31.16 0 56.42 25.26 56.42 56.42 0 31.15-25.26 56.41-56.42 56.41h21.76C-25.26 56.41 0 31.15 0 0" style="fill-opacity:1;fill-rule:nonzero;stroke:none" transform="translate(504.5 143.175)" fill="#aa6a50" data-original="#aa6a50"></path><path d="M0 0h234.896c31.157 0 56.415 25.258 56.415 56.414 0 31.157-25.258 56.414-56.415 56.414h-98.085" style="stroke-width:15;stroke-linecap:round;stroke-linejoin:round;stroke-miterlimit:10;stroke-dasharray:none;stroke-opacity:1" transform="translate(213.19 86.756)" fill="none" stroke="#000000" stroke-width="15" stroke-linecap="round" stroke-linejoin="round" stroke-miterlimit="10" stroke-dasharray="none" stroke-opacity="" data-original="#000000" class=""></path><path d="M0 0h-102.811" style="stroke-width:15;stroke-linecap:round;stroke-linejoin:round;stroke-miterlimit:10;stroke-dasharray:none;stroke-opacity:1" transform="translate(316 199.584)" fill="none" stroke="#000000" stroke-width="15" stroke-linecap="round" stroke-linejoin="round" stroke-miterlimit="10" stroke-dasharray="none" stroke-opacity="" data-original="#000000" class=""></path><path d="M0 0c0-31.156-25.257-56.414-56.414-56.414S-112.828-31.156-112.828 0c0 31.157 25.257 56.414 56.414 56.414S0 31.157 0 0" style="fill-opacity:1;fill-rule:nonzero;stroke:none" transform="translate(269.603 143.17)" fill="#d9b4a6" data-original="#d9b4a6" class=""></path><path d="M0 0c0-31.156-25.257-56.414-56.414-56.414S-112.828-31.156-112.828 0c0 31.157 25.257 56.414 56.414 56.414S0 31.157 0 0Z" style="stroke-width:15;stroke-linecap:round;stroke-linejoin:round;stroke-miterlimit:10;stroke-dasharray:none;stroke-opacity:1" transform="translate(269.603 143.17)" fill="none" stroke="#000000" stroke-width="15" stroke-linecap="round" stroke-linejoin="round" stroke-miterlimit="10" stroke-dasharray="none" stroke-opacity="" data-original="#000000" class=""></path><path d="M0 0c13.186 0 23.875-10.689 23.875-23.875S13.186-47.75 0-47.75s-23.875 10.689-23.875 23.875" style="stroke-width:15;stroke-linecap:round;stroke-linejoin:round;stroke-miterlimit:10;stroke-dasharray:none;stroke-opacity:1" transform="translate(213.19 167.045)" fill="none" stroke="#000000" stroke-width="15" stroke-linecap="round" stroke-linejoin="round" stroke-miterlimit="10" stroke-dasharray="none" stroke-opacity="" data-original="#000000" class=""></path><path d="M0 0h125.152" style="stroke-width:15;stroke-linecap:round;stroke-linejoin:round;stroke-miterlimit:10;stroke-dasharray:none;stroke-opacity:1" transform="translate(263.148 172.286)" fill="none" stroke="#000000" stroke-width="15" stroke-linecap="round" stroke-linejoin="round" stroke-miterlimit="10" stroke-dasharray="none" stroke-opacity="" data-original="#000000" class=""></path><path d="M0 0h88.167" style="stroke-width:15;stroke-linecap:round;stroke-linejoin:round;stroke-miterlimit:10;stroke-dasharray:none;stroke-opacity:1" transform="translate(374.142 146.066)" fill="none" stroke="#000000" stroke-width="15" stroke-linecap="round" stroke-linejoin="round" stroke-miterlimit="10" stroke-dasharray="none" stroke-opacity="" data-original="#000000" class=""></path><path d="M0 0h-25.568" style="stroke-width:15;stroke-linecap:round;stroke-linejoin:round;stroke-miterlimit:10;stroke-dasharray:none;stroke-opacity:1" transform="translate(344.365 146.066)" fill="none" stroke="#000000" stroke-width="15" stroke-linecap="round" stroke-linejoin="round" stroke-miterlimit="10" stroke-dasharray="none" stroke-opacity="" data-original="#000000" class=""></path><path d="M0 0h115.286" style="stroke-width:15;stroke-linecap:round;stroke-linejoin:round;stroke-miterlimit:10;stroke-dasharray:none;stroke-opacity:1" transform="translate(282.024 117.1)" fill="none" stroke="#000000" stroke-width="15" stroke-linecap="round" stroke-linejoin="round" stroke-miterlimit="10" stroke-dasharray="none" stroke-opacity="" data-original="#000000" class=""></path></g></g></svg>