<svg xmlns="http://www.w3.org/2000/svg" version="1.1" xmlns:xlink="http://www.w3.org/1999/xlink" xmlns:svgjs="http://svgjs.com/svgjs" width="512" height="512" x="0" y="0" viewBox="0 0 512 512" style="enable-background:new 0 0 512 512" xml:space="preserve" class=""><g><path fill="#f3f1f4" d="m218.237 129.432-10-121.932-81.599 81.6v37.042l43.649 35.201z" data-original="#f3f1f4" class=""></path><path fill="#ecc3df" d="m260.579 169.382 49.77-59.77L208.237 7.5v131.932z" data-original="#ecc3df"></path><path fill="#da8bc1" d="m310.349 109.612-49.77 49.77 60.27 34.486v-73.756z" data-original="#da8bc1"></path><path fill="#ddc9f1" d="m170.287 151.343-43.649-25.201v232.536l43.649 25.201h30z" data-original="#ddc9f1"></path><path fill="#bd96e4" d="M170.287 151.343v107.574l103.71 81.535-14.061-180.428.643-.642-52.342-29.95z" data-original="#bd96e4"></path><path fill="#9d66d6" d="M259.936 160.024v138.364l-62.086-62.086a3.5 3.5 0 0 0-4.95 0l-22.614 22.614v124.962l73.649 42.521 76.913-44.406V193.868l-60.27-34.486z" data-original="#9d66d6"></path><path fill="#f3f1f4" d="M407.395 218.118 383.951 117.01l-30-30-80.015 80.014v30l54.295 41.068z" data-original="#f3f1f4" class=""></path><path fill="#ecc3df" d="m422.395 218.118-15-77.664-23.444-23.444v101.108z" data-original="#ecc3df"></path><path fill="#da8bc1" d="M422.395 218.118v-62.664l-15-15v77.664z" data-original="#da8bc1"></path><path fill="#ddc9f1" d="m328.231 228.092-54.295-31.068V392.08l31.123 25.661 30.5 9.917z" data-original="#ddc9f1"></path><path fill="#bd96e4" d="M273.936 392.08v17l54.295 31.348 7.328-12.77z" data-original="#bd96e4"></path><path fill="#d5d9f2" d="M328.231 228.092v195.336l56.164-26.385v-60.584l30-59.588-7-67.413-23.444-13.536z" data-original="#d5d9f2"></path><path fill="#a4ace3" d="M407.395 209.458v64.582c0 .547-.128 1.086-.374 1.574l-29.252 58.103a3.496 3.496 0 0 0-.374 1.574v57.732a3.5 3.5 0 0 1-1.75 3.031l-47.414 27.374v17l64.164-37.045V337.46l30-59.588v-59.753z" data-original="#a4ace3"></path><path fill="#f3f1f4" d="m228.936 368.188 15-64.799-73.649-73.65-73.649 73.65v27.102l19.108 37.697z" data-original="#f3f1f4" class=""></path><path fill="#ddc9f1" d="m146.815 359.461-50.177-28.97v97.167l50.177 45.97 13.964-61.347z" data-original="#ddc9f1"></path><path fill="#bd96e4" d="M96.638 427.658v17l50.177 28.97 3.42-15.025z" data-original="#bd96e4"></path><path fill="#d5d9f2" d="m146.815 456.628 53.472 39.232 39.422-22.232-10.773-161.579-82.121 47.412z" data-original="#d5d9f2"></path><path fill="#a4ace3" d="M228.936 312.049v156.89a3.5 3.5 0 0 1-1.75 3.031l-25.149 14.52a3.501 3.501 0 0 1-3.5 0l-51.722-29.862v17l53.472 30.872 43.649-25.201v-175.91z" data-original="#a4ace3"></path><path fill="#ecc3df" d="M422.395 7.892c-4.856 0-8.243 36.825-11.948 40.53s-29.546 7.172-29.546 12.029c0 4.856 25.84 8.323 29.546 12.029s7.092 40.53 11.948 40.53 8.243-36.825 11.948-40.53 29.546-7.172 29.546-12.029-25.84-8.323-29.546-12.029-7.092-40.53-11.948-40.53z" data-original="#ecc3df"></path><circle cx="81.637" cy="145.953" r="15" fill="#ddc9f1" data-original="#ddc9f1"></circle><circle cx="407.395" cy="446.383" r="15" fill="#d5d9f2" data-original="#d5d9f2"></circle><path d="M200.287 512a7.493 7.493 0 0 1-3.75-1.005l-103.65-59.842a7.5 7.5 0 0 1-3.75-6.495V407.08c0-4.142 3.357-7.5 7.5-7.5s7.5 3.358 7.5 7.5v33.248l35.178 20.31v-96.846l-35.178-20.31v33.599c0 4.142-3.357 7.5-7.5 7.5s-7.5-3.358-7.5-7.5V303.39a7.5 7.5 0 0 1 2.196-5.303l73.649-73.649a7.5 7.5 0 0 1 10.607 0l73.649 73.649a7.5 7.5 0 0 1 2.196 5.303v110.022l15-8.661v-37.576c0-4.142 3.357-7.5 7.5-7.5s7.5 3.358 7.5 7.5v37.576l39.295 22.687V232.442l-39.295-22.482v127.215c0 4.142-3.357 7.5-7.5 7.5s-7.5-3.358-7.5-7.5V171.369l-58.182-33.287-30.468 17.59v44.067c0 4.142-3.357 7.5-7.5 7.5s-7.5-3.358-7.5-7.5v-44.067l-28.649-16.541v95.257c0 4.142-3.357 7.5-7.5 7.5s-7.5-3.358-7.5-7.5V89.1a7.5 7.5 0 0 1 2.196-5.303l81.601-81.6a7.5 7.5 0 0 1 10.607 0l93.494 93.495a7.5 7.5 0 0 1 0 10.606 7.501 7.501 0 0 1-10.607 0l-80.69-80.691v99.476l56.951 32.583 75.958-75.958a7.5 7.5 0 0 1 10.607 0l68.444 68.444a7.5 7.5 0 0 1 2.196 5.303v122.417a7.501 7.501 0 0 1-.801 3.373l-29.199 57.997v64.143a7.5 7.5 0 0 1-3.75 6.495l-64.164 37.044a7.499 7.499 0 0 1-7.5 0l-50.545-29.182-22.5 12.991v48.568a7.5 7.5 0 0 1-3.75 6.495l-43.649 25.201a7.492 7.492 0 0 1-3.747 1.003zm-45.972-42.702 45.972 26.542 36.149-20.871v-48.425a6.12 6.12 0 0 1 0-.271V316.38l-82.121 47.412zm181.416-236.876v195.015l49.164-28.384v-61.594c0-1.171.274-2.326.801-3.373l29.199-57.997v-53.642l-30.944-17.865zm-231.594 93.739 42.678 24.64 84.906-49.021-61.435-61.435-66.149 66.149zm177.299-133.483 46.778 26.763 48.236-27.849v-71.476l-22.5-22.5-72.515 72.515v22.547zm110.015-1.086 23.444 13.535V158.56l-23.444-23.444zm-257.314-69.78 36.149 20.871 30.451-17.581V25.607l-66.601 66.6v29.605zm239.814 359.816c-4.411 0-8-3.589-8-8s3.589-8 8-8 8 3.589 8 8-3.589 8-8 8zm33.444-12.745c-12.406 0-22.5-10.093-22.5-22.5s10.094-22.5 22.5-22.5 22.5 10.093 22.5 22.5-10.094 22.5-22.5 22.5zm0-30c-4.136 0-7.5 3.365-7.5 7.5 0 4.136 3.364 7.5 7.5 7.5s7.5-3.364 7.5-7.5c0-4.135-3.364-7.5-7.5-7.5zM83.637 280.934c-4.411 0-8-3.589-8-8s3.589-8 8-8 8 3.589 8 8-3.589 8-8 8zm-17.762-27.545a7.5 7.5 0 0 1-7.5-7.5v-15H48.111c-4.143 0-7.5-3.358-7.5-7.5s3.357-7.5 7.5-7.5h10.264v-15c0-4.142 3.357-7.5 7.5-7.5s7.5 3.358 7.5 7.5v15h10.263c4.143 0 7.5 3.358 7.5 7.5s-3.357 7.5-7.5 7.5H73.375v15a7.5 7.5 0 0 1-7.5 7.5zm15.762-84.936c-12.406 0-22.5-10.093-22.5-22.5s10.094-22.5 22.5-22.5 22.5 10.093 22.5 22.5-10.093 22.5-22.5 22.5zm0-30c-4.136 0-7.5 3.364-7.5 7.5s3.364 7.5 7.5 7.5 7.5-3.364 7.5-7.5-3.364-7.5-7.5-7.5zm379.923-4.311c-4.411 0-8-3.589-8-8s3.589-8 8-8 8 3.589 8 8-3.589 8-8 8zm-39.165-13.633c-7.523 0-9.877-8.544-11.008-12.65-1.246-4.521-2.367-10.262-3.451-15.813-.906-4.64-2.216-11.345-3.157-14.225-2.104-.843-6.408-2.022-9.42-2.848-12.268-3.362-21.958-6.018-21.958-14.523s9.69-11.161 21.958-14.522c3.011-.825 7.315-2.005 9.42-2.848.941-2.879 2.251-9.585 3.157-14.225 1.084-5.551 2.205-11.292 3.451-15.813 1.131-4.106 3.484-12.65 11.008-12.65s9.877 8.544 11.008 12.65c1.246 4.521 2.367 10.262 3.451 15.813.906 4.64 2.216 11.345 3.157 14.225 2.104.843 6.409 2.022 9.42 2.848 12.269 3.362 21.958 6.017 21.958 14.522s-9.69 11.161-21.958 14.523c-3.012.825-7.315 2.005-9.42 2.848-.941 2.879-2.251 9.585-3.157 14.225-1.084 5.551-2.205 11.292-3.451 15.813-1.131 4.106-3.484 12.65-11.008 12.65zM399.119 60.45l.205.057c8.831 2.42 13.572 3.816 16.426 6.668 2.883 2.884 4.114 7.772 6.646 20.652 2.531-12.88 3.763-17.769 6.645-20.651 2.854-2.854 7.595-4.25 16.427-6.67l.205-.056-.204-.056c-8.833-2.42-13.574-3.816-16.428-6.669-2.882-2.883-4.113-7.771-6.645-20.652-2.531 12.88-3.763 17.769-6.645 20.651-2.854 2.854-7.596 4.25-16.428 6.669l-.204.057zm6.597 17.81c.001 0 .001 0 0 0zm33.357-35.619" fill="#000000" data-original="#000000"></path></g></svg>